<mxfile host="Electron" agent="Mozilla/5.0 (Windows NT 10.0; Win64; x64) AppleWebKit/537.36 (KHTML, like Gecko) draw.io/26.2.2 Chrome/134.0.6998.178 Electron/35.1.2 Safari/537.36" version="26.2.2">
  <diagram name="Page-1" id="d7SSXYF1CG-nv_phF41L">
    <mxGraphModel dx="1936" dy="2866" grid="1" gridSize="10" guides="1" tooltips="1" connect="1" arrows="1" fold="1" page="1" pageScale="1" pageWidth="850" pageHeight="1100" math="0" shadow="0">
      <root>
        <mxCell id="0" />
        <mxCell id="1" parent="0" />
        <mxCell id="GMXlGIsEn00OUuM3Z-hQ-1" value="&lt;pre style=&quot;font-family: &amp;quot;JetBrains Mono&amp;quot;, monospace; font-size: 12pt;&quot;&gt;&lt;div style=&quot;background-color:#1e1e1e;color:#dcdcdc&quot;&gt;&lt;pre style=&quot;font-family:&#39;JetBrains Mono&#39;,monospace;font-size:12.0pt;&quot;&gt;FindFictionalVariables&lt;/pre&gt;&lt;/div&gt;&lt;/pre&gt;" style="text;html=1;align=center;verticalAlign=middle;resizable=0;points=[];autosize=1;strokeColor=none;fillColor=none;" parent="1" vertex="1">
          <mxGeometry x="-80" y="-310" width="220" height="60" as="geometry" />
        </mxCell>
        <mxCell id="GMXlGIsEn00OUuM3Z-hQ-97" style="edgeStyle=orthogonalEdgeStyle;rounded=0;orthogonalLoop=1;jettySize=auto;html=1;exitX=0.5;exitY=1;exitDx=0;exitDy=0;exitPerimeter=0;entryX=0.5;entryY=0;entryDx=0;entryDy=0;" parent="1" source="GMXlGIsEn00OUuM3Z-hQ-3" target="GMXlGIsEn00OUuM3Z-hQ-96" edge="1">
          <mxGeometry relative="1" as="geometry" />
        </mxCell>
        <mxCell id="GMXlGIsEn00OUuM3Z-hQ-3" value="begin" style="strokeWidth=2;html=1;shape=mxgraph.flowchart.terminator;whiteSpace=wrap;" parent="1" vertex="1">
          <mxGeometry x="-262.5" y="-90" width="120" height="60" as="geometry" />
        </mxCell>
        <mxCell id="GMXlGIsEn00OUuM3Z-hQ-6" value="&lt;pre style=&quot;font-family: &amp;quot;JetBrains Mono&amp;quot;, monospace; font-size: 12pt;&quot;&gt;input: none&lt;/pre&gt;" style="text;html=1;align=center;verticalAlign=middle;resizable=0;points=[];autosize=1;strokeColor=none;fillColor=none;" parent="1" vertex="1">
          <mxGeometry x="-80" y="-260" width="120" height="60" as="geometry" />
        </mxCell>
        <mxCell id="GMXlGIsEn00OUuM3Z-hQ-7" value="&lt;pre style=&quot;font-family: &amp;quot;JetBrains Mono&amp;quot;, monospace; font-size: 12pt;&quot;&gt;output: none&lt;/pre&gt;" style="text;html=1;align=center;verticalAlign=middle;resizable=0;points=[];autosize=1;strokeColor=none;fillColor=none;" parent="1" vertex="1">
          <mxGeometry x="-80" y="-210" width="130" height="60" as="geometry" />
        </mxCell>
        <mxCell id="GMXlGIsEn00OUuM3Z-hQ-48" value="&lt;pre style=&quot;font-family: &amp;quot;JetBrains Mono&amp;quot;, monospace; font-size: 12pt;&quot;&gt;&lt;div style=&quot;background-color:#1e1e1e;color:#dcdcdc&quot;&gt;&lt;pre style=&quot;font-family:&#39;JetBrains Mono&#39;,monospace;font-size:12.0pt;&quot;&gt;FictionalVariablesFinder&lt;/pre&gt;&lt;/div&gt;&lt;/pre&gt;" style="text;html=1;align=center;verticalAlign=middle;resizable=0;points=[];autosize=1;strokeColor=none;fillColor=none;" parent="1" vertex="1">
          <mxGeometry x="1260" y="-720" width="230" height="60" as="geometry" />
        </mxCell>
        <mxCell id="GMXlGIsEn00OUuM3Z-hQ-49" style="edgeStyle=orthogonalEdgeStyle;rounded=0;orthogonalLoop=1;jettySize=auto;html=1;exitX=0.5;exitY=1;exitDx=0;exitDy=0;exitPerimeter=0;entryX=0.5;entryY=0;entryDx=0;entryDy=0;" parent="1" source="GMXlGIsEn00OUuM3Z-hQ-50" target="GMXlGIsEn00OUuM3Z-hQ-51" edge="1">
          <mxGeometry relative="1" as="geometry" />
        </mxCell>
        <mxCell id="GMXlGIsEn00OUuM3Z-hQ-50" value="begin" style="strokeWidth=2;html=1;shape=mxgraph.flowchart.terminator;whiteSpace=wrap;" parent="1" vertex="1">
          <mxGeometry x="1062.5" y="-640" width="120" height="60" as="geometry" />
        </mxCell>
        <mxCell id="GMXlGIsEn00OUuM3Z-hQ-73" style="edgeStyle=orthogonalEdgeStyle;rounded=0;orthogonalLoop=1;jettySize=auto;html=1;exitX=0.5;exitY=1;exitDx=0;exitDy=0;entryX=0.5;entryY=0;entryDx=0;entryDy=0;" parent="1" source="GMXlGIsEn00OUuM3Z-hQ-51" target="GMXlGIsEn00OUuM3Z-hQ-72" edge="1">
          <mxGeometry relative="1" as="geometry" />
        </mxCell>
        <mxCell id="GMXlGIsEn00OUuM3Z-hQ-51" value="&lt;div style=&quot;background-color:#1e1e1e;color:#dcdcdc&quot;&gt;&lt;pre style=&quot;font-family:&#39;JetBrains Mono&#39;,monospace;font-size:12.0pt;&quot;&gt;&lt;pre style=&quot;font-family:&#39;JetBrains Mono&#39;,monospace;font-size:12.0pt;&quot;&gt;&lt;div&gt;&lt;pre style=&quot;font-family:&#39;JetBrains Mono&#39;,monospace;font-size:12.0pt;&quot;&gt;FormulaString = &lt;span style=&quot;color:#9cdcfe;&quot;&gt;formulaString&lt;/span&gt;;&lt;/pre&gt;&lt;/div&gt;&lt;/pre&gt;&lt;/pre&gt;&lt;/div&gt;" style="rounded=1;whiteSpace=wrap;html=1;absoluteArcSize=1;arcSize=14;strokeWidth=2;" parent="1" vertex="1">
          <mxGeometry x="962.5" y="-540" width="320" height="50" as="geometry" />
        </mxCell>
        <mxCell id="GMXlGIsEn00OUuM3Z-hQ-52" value="&lt;pre style=&quot;font-family: &amp;quot;JetBrains Mono&amp;quot;, monospace; font-size: 12pt;&quot;&gt;input: string &lt;span style=&quot;font-size: 12pt; background-color: rgb(30, 30, 30); color: rgb(220, 220, 220); white-space-collapse: collapse;&quot;&gt;formulaString&lt;/span&gt;&lt;/pre&gt;" style="text;html=1;align=center;verticalAlign=middle;resizable=0;points=[];autosize=1;strokeColor=none;fillColor=none;" parent="1" vertex="1">
          <mxGeometry x="1252.5" y="-670" width="260" height="60" as="geometry" />
        </mxCell>
        <mxCell id="GMXlGIsEn00OUuM3Z-hQ-53" value="&lt;pre style=&quot;font-family: &amp;quot;JetBrains Mono&amp;quot;, monospace; font-size: 12pt;&quot;&gt;output: FictionalVariablesFinder&lt;/pre&gt;" style="text;html=1;align=center;verticalAlign=middle;resizable=0;points=[];autosize=1;strokeColor=none;fillColor=none;" parent="1" vertex="1">
          <mxGeometry x="1250" y="-620" width="310" height="60" as="geometry" />
        </mxCell>
        <mxCell id="GMXlGIsEn00OUuM3Z-hQ-54" value="end" style="strokeWidth=2;html=1;shape=mxgraph.flowchart.terminator;whiteSpace=wrap;" parent="1" vertex="1">
          <mxGeometry x="1062.5" y="-360" width="120" height="60" as="geometry" />
        </mxCell>
        <mxCell id="GMXlGIsEn00OUuM3Z-hQ-61" value="&lt;pre style=&quot;font-family: &amp;quot;JetBrains Mono&amp;quot;, monospace; font-size: 12pt;&quot;&gt;&lt;div style=&quot;background-color:#1e1e1e;color:#dcdcdc&quot;&gt;&lt;pre style=&quot;font-family:&#39;JetBrains Mono&#39;,monospace;font-size:12.0pt;&quot;&gt;IsFictionalVariable&lt;/pre&gt;&lt;/div&gt;&lt;/pre&gt;" style="text;html=1;align=center;verticalAlign=middle;resizable=0;points=[];autosize=1;strokeColor=none;fillColor=none;" parent="1" vertex="1">
          <mxGeometry x="1370" y="-200" width="190" height="60" as="geometry" />
        </mxCell>
        <mxCell id="hHyw9ZhmQFmIBixU8_tA-8" style="edgeStyle=orthogonalEdgeStyle;rounded=0;orthogonalLoop=1;jettySize=auto;html=1;exitX=0.5;exitY=1;exitDx=0;exitDy=0;exitPerimeter=0;entryX=0.5;entryY=0;entryDx=0;entryDy=0;" edge="1" parent="1" source="GMXlGIsEn00OUuM3Z-hQ-63" target="hHyw9ZhmQFmIBixU8_tA-7">
          <mxGeometry relative="1" as="geometry" />
        </mxCell>
        <mxCell id="GMXlGIsEn00OUuM3Z-hQ-63" value="begin" style="strokeWidth=2;html=1;shape=mxgraph.flowchart.terminator;whiteSpace=wrap;" parent="1" vertex="1">
          <mxGeometry x="1062.5" y="-180" width="120" height="60" as="geometry" />
        </mxCell>
        <mxCell id="GMXlGIsEn00OUuM3Z-hQ-76" style="edgeStyle=orthogonalEdgeStyle;rounded=0;orthogonalLoop=1;jettySize=auto;html=1;exitX=0.5;exitY=1;exitDx=0;exitDy=0;entryX=0.5;entryY=0;entryDx=0;entryDy=0;" parent="1" source="GMXlGIsEn00OUuM3Z-hQ-64" target="GMXlGIsEn00OUuM3Z-hQ-75" edge="1">
          <mxGeometry relative="1" as="geometry" />
        </mxCell>
        <mxCell id="GMXlGIsEn00OUuM3Z-hQ-64" value="&lt;div style=&quot;background-color: rgb(30, 30, 30); color: rgb(220, 220, 220);&quot;&gt;&lt;pre style=&quot;font-family:&#39;JetBrains Mono&#39;,monospace;font-size:12.0pt;&quot;&gt;&lt;pre style=&quot;font-family:&#39;JetBrains Mono&#39;,monospace;font-size:12.0pt;&quot;&gt;&lt;pre style=&quot;font-family:&#39;JetBrains Mono&#39;,monospace;font-size:12.0pt;&quot;&gt;&lt;pre style=&quot;font-family:&#39;JetBrains Mono&#39;,monospace;font-size:12.0pt;&quot;&gt;&lt;div&gt;&lt;pre style=&quot;font-family:&#39;JetBrains Mono&#39;,monospace;font-size:12.0pt;&quot;&gt;&lt;span style=&quot;color:#569cd6;&quot;&gt;var &lt;/span&gt;&lt;span style=&quot;color:#9cdcfe;&quot;&gt;formulaWithOne &lt;/span&gt;= FormulaString.&lt;span style=&quot;color:#dcdca9;&quot;&gt;Replace&lt;/span&gt;(&lt;span style=&quot;color:#9cdcfe;&quot;&gt;variableName&lt;/span&gt;, &lt;span style=&quot;color:#d69d85;&quot;&gt;&quot;1&quot;&lt;/span&gt;);&lt;/pre&gt;&lt;/div&gt;&lt;/pre&gt;&lt;/pre&gt;&lt;/pre&gt;&lt;/pre&gt;&lt;/div&gt;" style="rounded=1;whiteSpace=wrap;html=1;absoluteArcSize=1;arcSize=14;strokeWidth=2;" parent="1" vertex="1">
          <mxGeometry x="737.5" y="-10" width="770" height="50" as="geometry" />
        </mxCell>
        <mxCell id="GMXlGIsEn00OUuM3Z-hQ-65" value="&lt;pre style=&quot;font-family: &amp;quot;JetBrains Mono&amp;quot;, monospace; font-size: 12pt;&quot;&gt;input: string &lt;span style=&quot;font-size: 12pt; background-color: rgb(30, 30, 30); color: rgb(220, 220, 220); white-space-collapse: collapse;&quot;&gt;variableName&lt;/span&gt;&lt;/pre&gt;" style="text;html=1;align=center;verticalAlign=middle;resizable=0;points=[];autosize=1;strokeColor=none;fillColor=none;" parent="1" vertex="1">
          <mxGeometry x="1370" y="-150" width="250" height="60" as="geometry" />
        </mxCell>
        <mxCell id="GMXlGIsEn00OUuM3Z-hQ-66" value="&lt;pre style=&quot;font-family: &amp;quot;JetBrains Mono&amp;quot;, monospace; font-size: 12pt;&quot;&gt;output: bool result&lt;/pre&gt;" style="text;html=1;align=center;verticalAlign=middle;resizable=0;points=[];autosize=1;strokeColor=none;fillColor=none;" parent="1" vertex="1">
          <mxGeometry x="1370" y="-100" width="190" height="60" as="geometry" />
        </mxCell>
        <mxCell id="GMXlGIsEn00OUuM3Z-hQ-67" value="end" style="strokeWidth=2;html=1;shape=mxgraph.flowchart.terminator;whiteSpace=wrap;" parent="1" vertex="1">
          <mxGeometry x="1260" y="1320" width="120" height="60" as="geometry" />
        </mxCell>
        <mxCell id="GMXlGIsEn00OUuM3Z-hQ-72" value="&lt;div style=&quot;background-color:#1e1e1e;color:#dcdcdc&quot;&gt;&lt;pre style=&quot;font-family:&#39;JetBrains Mono&#39;,monospace;font-size:12.0pt;&quot;&gt;&lt;pre style=&quot;font-family:&#39;JetBrains Mono&#39;,monospace;font-size:12.0pt;&quot;&gt;&lt;pre style=&quot;font-family:&#39;JetBrains Mono&#39;,monospace;font-size:12.0pt;&quot;&gt;&lt;div&gt;&lt;pre style=&quot;font-family:&#39;JetBrains Mono&#39;,monospace;font-size:12.0pt;&quot;&gt;FictionalVariables = [];&lt;/pre&gt;&lt;/div&gt;&lt;/pre&gt;&lt;/pre&gt;&lt;/pre&gt;&lt;/div&gt;" style="rounded=1;whiteSpace=wrap;html=1;absoluteArcSize=1;arcSize=14;strokeWidth=2;" parent="1" vertex="1">
          <mxGeometry x="962.5" y="-450" width="320" height="50" as="geometry" />
        </mxCell>
        <mxCell id="GMXlGIsEn00OUuM3Z-hQ-74" style="edgeStyle=orthogonalEdgeStyle;rounded=0;orthogonalLoop=1;jettySize=auto;html=1;exitX=0.5;exitY=1;exitDx=0;exitDy=0;entryX=0.5;entryY=0;entryDx=0;entryDy=0;entryPerimeter=0;" parent="1" source="GMXlGIsEn00OUuM3Z-hQ-72" target="GMXlGIsEn00OUuM3Z-hQ-54" edge="1">
          <mxGeometry relative="1" as="geometry" />
        </mxCell>
        <mxCell id="GMXlGIsEn00OUuM3Z-hQ-91" style="edgeStyle=orthogonalEdgeStyle;rounded=0;orthogonalLoop=1;jettySize=auto;html=1;exitX=0.5;exitY=1;exitDx=0;exitDy=0;entryX=0.5;entryY=0;entryDx=0;entryDy=0;" parent="1" source="GMXlGIsEn00OUuM3Z-hQ-75" target="GMXlGIsEn00OUuM3Z-hQ-89" edge="1">
          <mxGeometry relative="1" as="geometry" />
        </mxCell>
        <mxCell id="GMXlGIsEn00OUuM3Z-hQ-75" value="&lt;div style=&quot;background-color: rgb(30, 30, 30); color: rgb(220, 220, 220);&quot;&gt;&lt;pre style=&quot;font-family:&#39;JetBrains Mono&#39;,monospace;font-size:12.0pt;&quot;&gt;&lt;pre style=&quot;font-family:&#39;JetBrains Mono&#39;,monospace;font-size:12.0pt;&quot;&gt;&lt;pre style=&quot;font-family:&#39;JetBrains Mono&#39;,monospace;font-size:12.0pt;&quot;&gt;&lt;pre style=&quot;font-family:&#39;JetBrains Mono&#39;,monospace;font-size:12.0pt;&quot;&gt;&lt;pre style=&quot;font-family:&#39;JetBrains Mono&#39;,monospace;font-size:12.0pt;&quot;&gt;&lt;div&gt;&lt;pre style=&quot;font-family:&#39;JetBrains Mono&#39;,monospace;font-size:12.0pt;&quot;&gt;&lt;span style=&quot;color:#569cd6;&quot;&gt;var &lt;/span&gt;&lt;span style=&quot;color:#9cdcfe;&quot;&gt;formulaWithZero &lt;/span&gt;= FormulaString.&lt;span style=&quot;color:#dcdca9;&quot;&gt;Replace&lt;/span&gt;(&lt;span style=&quot;color:#9cdcfe;&quot;&gt;variableName&lt;/span&gt;, &lt;span style=&quot;color:#d69d85;&quot;&gt;&quot;0&quot;&lt;/span&gt;);&lt;/pre&gt;&lt;/div&gt;&lt;/pre&gt;&lt;/pre&gt;&lt;/pre&gt;&lt;/pre&gt;&lt;/pre&gt;&lt;/div&gt;" style="rounded=1;whiteSpace=wrap;html=1;absoluteArcSize=1;arcSize=14;strokeWidth=2;" parent="1" vertex="1">
          <mxGeometry x="737.5" y="90" width="770" height="50" as="geometry" />
        </mxCell>
        <mxCell id="hHyw9ZhmQFmIBixU8_tA-33" style="edgeStyle=orthogonalEdgeStyle;rounded=0;orthogonalLoop=1;jettySize=auto;html=1;exitX=0.5;exitY=1;exitDx=0;exitDy=0;entryX=0.5;entryY=0;entryDx=0;entryDy=0;" edge="1" parent="1" source="GMXlGIsEn00OUuM3Z-hQ-89" target="GMXlGIsEn00OUuM3Z-hQ-90">
          <mxGeometry relative="1" as="geometry" />
        </mxCell>
        <mxCell id="GMXlGIsEn00OUuM3Z-hQ-89" value="&lt;pre style=&quot;color: rgb(220, 220, 220); font-size: 12pt; background-color: rgb(30, 30, 30); font-family: &amp;quot;JetBrains Mono&amp;quot;, monospace;&quot;&gt;&lt;div&gt;&lt;pre style=&quot;font-family:&#39;JetBrains Mono&#39;,monospace;font-size:9.0pt;&quot;&gt;var formulaWithOne = FormulaParser.Parse(formulaWithOneStr);&lt;/pre&gt;&lt;/div&gt;&lt;/pre&gt;" style="shape=process;whiteSpace=wrap;html=1;backgroundOutline=1;" parent="1" vertex="1">
          <mxGeometry x="777.5" y="180" width="690" height="45" as="geometry" />
        </mxCell>
        <mxCell id="hHyw9ZhmQFmIBixU8_tA-34" style="edgeStyle=orthogonalEdgeStyle;rounded=0;orthogonalLoop=1;jettySize=auto;html=1;exitX=0.5;exitY=1;exitDx=0;exitDy=0;entryX=0.5;entryY=0;entryDx=0;entryDy=0;" edge="1" parent="1" source="GMXlGIsEn00OUuM3Z-hQ-90" target="hHyw9ZhmQFmIBixU8_tA-10">
          <mxGeometry relative="1" as="geometry" />
        </mxCell>
        <mxCell id="GMXlGIsEn00OUuM3Z-hQ-90" value="&lt;pre style=&quot;color: rgb(220, 220, 220); font-size: 12pt; background-color: rgb(30, 30, 30); font-family: &amp;quot;JetBrains Mono&amp;quot;, monospace;&quot;&gt;&lt;pre style=&quot;font-size: 12pt; font-family: &amp;quot;JetBrains Mono&amp;quot;, monospace;&quot;&gt;&lt;div&gt;&lt;pre style=&quot;font-family:&#39;JetBrains Mono&#39;,monospace;font-size:9.0pt;&quot;&gt;var formulaWithZero = FormulaParser.Parse(formulaWithZeroStr);&lt;/pre&gt;&lt;/div&gt;&lt;/pre&gt;&lt;/pre&gt;" style="shape=process;whiteSpace=wrap;html=1;backgroundOutline=1;size=0.055299539170506916;" parent="1" vertex="1">
          <mxGeometry x="851.25" y="265" width="542.5" height="45" as="geometry" />
        </mxCell>
        <mxCell id="hHyw9ZhmQFmIBixU8_tA-2" style="edgeStyle=orthogonalEdgeStyle;rounded=0;orthogonalLoop=1;jettySize=auto;html=1;exitX=0.5;exitY=1;exitDx=0;exitDy=0;entryX=0.5;entryY=0;entryDx=0;entryDy=0;" edge="1" parent="1" source="GMXlGIsEn00OUuM3Z-hQ-96" target="hHyw9ZhmQFmIBixU8_tA-1">
          <mxGeometry relative="1" as="geometry" />
        </mxCell>
        <mxCell id="GMXlGIsEn00OUuM3Z-hQ-96" value="&lt;div style=&quot;background-color:#1e1e1e;color:#dcdcdc&quot;&gt;&lt;pre style=&quot;font-family:&#39;JetBrains Mono&#39;,monospace;font-size:12.0pt;&quot;&gt;var allVariables = FormulaParser.FindAllPropositionalVariables(FormulaString);&lt;/pre&gt;&lt;/div&gt;" style="shape=process;whiteSpace=wrap;html=1;backgroundOutline=1;size=0.03664921465968634;" parent="1" vertex="1">
          <mxGeometry x="-617.5" y="20" width="830" height="50" as="geometry" />
        </mxCell>
        <mxCell id="GMXlGIsEn00OUuM3Z-hQ-105" style="edgeStyle=orthogonalEdgeStyle;rounded=0;orthogonalLoop=1;jettySize=auto;html=1;exitX=0;exitY=0.5;exitDx=0;exitDy=0;" parent="1" source="GMXlGIsEn00OUuM3Z-hQ-98" target="GMXlGIsEn00OUuM3Z-hQ-99" edge="1">
          <mxGeometry relative="1" as="geometry" />
        </mxCell>
        <mxCell id="GMXlGIsEn00OUuM3Z-hQ-106" value="yes" style="edgeLabel;html=1;align=center;verticalAlign=middle;resizable=0;points=[];" parent="GMXlGIsEn00OUuM3Z-hQ-105" vertex="1" connectable="0">
          <mxGeometry x="-0.1698" relative="1" as="geometry">
            <mxPoint y="1" as="offset" />
          </mxGeometry>
        </mxCell>
        <mxCell id="GMXlGIsEn00OUuM3Z-hQ-115" style="edgeStyle=orthogonalEdgeStyle;rounded=0;orthogonalLoop=1;jettySize=auto;html=1;exitX=1;exitY=0.5;exitDx=0;exitDy=0;entryX=0.5;entryY=0;entryDx=0;entryDy=0;" parent="1" source="GMXlGIsEn00OUuM3Z-hQ-98" target="hHyw9ZhmQFmIBixU8_tA-5" edge="1">
          <mxGeometry relative="1" as="geometry">
            <mxPoint x="135" y="390" as="targetPoint" />
          </mxGeometry>
        </mxCell>
        <mxCell id="GMXlGIsEn00OUuM3Z-hQ-116" value="no" style="edgeLabel;html=1;align=center;verticalAlign=middle;resizable=0;points=[];" parent="GMXlGIsEn00OUuM3Z-hQ-115" vertex="1" connectable="0">
          <mxGeometry x="-0.6531" y="1" relative="1" as="geometry">
            <mxPoint as="offset" />
          </mxGeometry>
        </mxCell>
        <mxCell id="GMXlGIsEn00OUuM3Z-hQ-98" value="&lt;div style=&quot;background-color:#1e1e1e;color:#dcdcdc&quot;&gt;&lt;pre style=&quot;font-family:&#39;JetBrains Mono&#39;,monospace;font-size:8.3pt;&quot;&gt;&lt;div&gt;&lt;pre style=&quot;font-family:&#39;JetBrains Mono&#39;,monospace;font-size:11.3pt;&quot;&gt;i &amp;lt; allVariables.Count;&lt;/pre&gt;&lt;/div&gt;&lt;/pre&gt;&lt;/div&gt;" style="rhombus;whiteSpace=wrap;html=1;" parent="1" vertex="1">
          <mxGeometry x="-479.75" y="265" width="554.5" height="80" as="geometry" />
        </mxCell>
        <mxCell id="GMXlGIsEn00OUuM3Z-hQ-103" value="" style="edgeStyle=orthogonalEdgeStyle;rounded=0;orthogonalLoop=1;jettySize=auto;html=1;" parent="1" source="GMXlGIsEn00OUuM3Z-hQ-99" target="GMXlGIsEn00OUuM3Z-hQ-101" edge="1">
          <mxGeometry relative="1" as="geometry" />
        </mxCell>
        <mxCell id="GMXlGIsEn00OUuM3Z-hQ-104" value="yes" style="edgeLabel;html=1;align=center;verticalAlign=middle;resizable=0;points=[];" parent="GMXlGIsEn00OUuM3Z-hQ-103" vertex="1" connectable="0">
          <mxGeometry x="-0.2494" y="2" relative="1" as="geometry">
            <mxPoint as="offset" />
          </mxGeometry>
        </mxCell>
        <mxCell id="GMXlGIsEn00OUuM3Z-hQ-107" style="edgeStyle=orthogonalEdgeStyle;rounded=0;orthogonalLoop=1;jettySize=auto;html=1;exitX=1;exitY=0.5;exitDx=0;exitDy=0;entryX=0.5;entryY=0;entryDx=0;entryDy=0;" parent="1" source="GMXlGIsEn00OUuM3Z-hQ-99" target="GMXlGIsEn00OUuM3Z-hQ-98" edge="1">
          <mxGeometry relative="1" as="geometry">
            <mxPoint x="-130" y="795" as="targetPoint" />
            <Array as="points">
              <mxPoint x="-243" y="480" />
              <mxPoint x="-243" y="755" />
              <mxPoint x="-750" y="755" />
              <mxPoint x="-750" y="245" />
              <mxPoint x="-203" y="245" />
            </Array>
          </mxGeometry>
        </mxCell>
        <mxCell id="GMXlGIsEn00OUuM3Z-hQ-110" value="no" style="edgeLabel;html=1;align=center;verticalAlign=middle;resizable=0;points=[];" parent="GMXlGIsEn00OUuM3Z-hQ-107" vertex="1" connectable="0">
          <mxGeometry x="-0.9233" y="-1" relative="1" as="geometry">
            <mxPoint as="offset" />
          </mxGeometry>
        </mxCell>
        <mxCell id="GMXlGIsEn00OUuM3Z-hQ-99" value="&lt;div style=&quot;background-color:#1e1e1e;color:#dcdcdc&quot;&gt;&lt;pre style=&quot;font-family:&#39;JetBrains Mono&#39;,monospace;font-size:12.0pt;&quot;&gt;IsFictionalVariable(allVariables[i])&lt;/pre&gt;&lt;/div&gt;" style="rhombus;whiteSpace=wrap;html=1;" parent="1" vertex="1">
          <mxGeometry x="-730" y="425" width="440" height="110" as="geometry" />
        </mxCell>
        <mxCell id="GMXlGIsEn00OUuM3Z-hQ-111" style="edgeStyle=orthogonalEdgeStyle;rounded=0;orthogonalLoop=1;jettySize=auto;html=1;exitX=0.5;exitY=1;exitDx=0;exitDy=0;" parent="1" source="GMXlGIsEn00OUuM3Z-hQ-101" edge="1">
          <mxGeometry relative="1" as="geometry">
            <mxPoint x="-510.5" y="754.9999999999995" as="targetPoint" />
          </mxGeometry>
        </mxCell>
        <mxCell id="GMXlGIsEn00OUuM3Z-hQ-101" value="&lt;div style=&quot;background-color:#1e1e1e;color:#dcdcdc&quot;&gt;&lt;pre style=&quot;font-family:&#39;JetBrains Mono&#39;,monospace;font-size:12.0pt;&quot;&gt;FictionalVariables.Add(variable);&lt;/pre&gt;&lt;/div&gt;" style="rounded=1;whiteSpace=wrap;html=1;absoluteArcSize=1;arcSize=14;strokeWidth=2;" parent="1" vertex="1">
          <mxGeometry x="-711.5" y="585" width="403" height="60" as="geometry" />
        </mxCell>
        <mxCell id="GMXlGIsEn00OUuM3Z-hQ-114" value="end" style="strokeWidth=2;html=1;shape=mxgraph.flowchart.terminator;whiteSpace=wrap;" parent="1" vertex="1">
          <mxGeometry x="74.75" y="500" width="120" height="60" as="geometry" />
        </mxCell>
        <mxCell id="hHyw9ZhmQFmIBixU8_tA-3" style="edgeStyle=orthogonalEdgeStyle;rounded=0;orthogonalLoop=1;jettySize=auto;html=1;exitX=0.5;exitY=1;exitDx=0;exitDy=0;" edge="1" parent="1" source="hHyw9ZhmQFmIBixU8_tA-1" target="GMXlGIsEn00OUuM3Z-hQ-98">
          <mxGeometry relative="1" as="geometry" />
        </mxCell>
        <mxCell id="hHyw9ZhmQFmIBixU8_tA-1" value="int i = 0;" style="rounded=1;whiteSpace=wrap;html=1;" vertex="1" parent="1">
          <mxGeometry x="-262.5" y="120" width="120" height="60" as="geometry" />
        </mxCell>
        <mxCell id="hHyw9ZhmQFmIBixU8_tA-5" value="&lt;div style=&quot;background-color:#1e1e1e;color:#dcdcdc&quot;&gt;&lt;pre style=&quot;font-family:&#39;JetBrains Mono&#39;,monospace;font-size:11.3pt;&quot;&gt;OptionsBuilder.CachedArguments = &lt;span style=&quot;color:#569cd6;&quot;&gt;null&lt;/span&gt;;&lt;/pre&gt;&lt;/div&gt;" style="rounded=1;whiteSpace=wrap;html=1;" vertex="1" parent="1">
          <mxGeometry x="-55.25" y="400" width="380" height="60" as="geometry" />
        </mxCell>
        <mxCell id="hHyw9ZhmQFmIBixU8_tA-6" style="edgeStyle=orthogonalEdgeStyle;rounded=0;orthogonalLoop=1;jettySize=auto;html=1;exitX=0.5;exitY=1;exitDx=0;exitDy=0;entryX=0.5;entryY=0;entryDx=0;entryDy=0;entryPerimeter=0;" edge="1" parent="1" source="hHyw9ZhmQFmIBixU8_tA-5" target="GMXlGIsEn00OUuM3Z-hQ-114">
          <mxGeometry relative="1" as="geometry" />
        </mxCell>
        <mxCell id="hHyw9ZhmQFmIBixU8_tA-9" style="edgeStyle=orthogonalEdgeStyle;rounded=0;orthogonalLoop=1;jettySize=auto;html=1;exitX=0.5;exitY=1;exitDx=0;exitDy=0;" edge="1" parent="1" source="hHyw9ZhmQFmIBixU8_tA-7" target="GMXlGIsEn00OUuM3Z-hQ-64">
          <mxGeometry relative="1" as="geometry" />
        </mxCell>
        <mxCell id="hHyw9ZhmQFmIBixU8_tA-7" value="&lt;div style=&quot;background-color: rgb(30, 30, 30); color: rgb(220, 220, 220);&quot;&gt;&lt;pre style=&quot;font-family:&#39;JetBrains Mono&#39;,monospace;font-size:12.0pt;&quot;&gt;&lt;pre style=&quot;font-family:&#39;JetBrains Mono&#39;,monospace;font-size:12.0pt;&quot;&gt;&lt;pre style=&quot;font-family:&#39;JetBrains Mono&#39;,monospace;font-size:12.0pt;&quot;&gt;&lt;pre style=&quot;font-family:&#39;JetBrains Mono&#39;,monospace;font-size:12.0pt;&quot;&gt;&lt;pre style=&quot;font-family:&#39;JetBrains Mono&#39;,monospace;font-size:12.0pt;&quot;&gt;&lt;div&gt;&lt;pre style=&quot;font-family:&#39;JetBrains Mono&#39;,monospace;font-size:9.0pt;&quot;&gt;Stopwatch sw = Stopwatch.StartNew();&lt;/pre&gt;&lt;/div&gt;&lt;/pre&gt;&lt;/pre&gt;&lt;/pre&gt;&lt;/pre&gt;&lt;/pre&gt;&lt;/div&gt;" style="rounded=1;whiteSpace=wrap;html=1;absoluteArcSize=1;arcSize=14;strokeWidth=2;" vertex="1" parent="1">
          <mxGeometry x="966.25" y="-90" width="312.5" height="50" as="geometry" />
        </mxCell>
        <mxCell id="hHyw9ZhmQFmIBixU8_tA-35" style="edgeStyle=orthogonalEdgeStyle;rounded=0;orthogonalLoop=1;jettySize=auto;html=1;exitX=0.5;exitY=1;exitDx=0;exitDy=0;entryX=0.5;entryY=0;entryDx=0;entryDy=0;" edge="1" parent="1" source="hHyw9ZhmQFmIBixU8_tA-10" target="hHyw9ZhmQFmIBixU8_tA-11">
          <mxGeometry relative="1" as="geometry" />
        </mxCell>
        <mxCell id="hHyw9ZhmQFmIBixU8_tA-10" value="&lt;pre style=&quot;color: rgb(220, 220, 220); font-size: 12pt; background-color: rgb(30, 30, 30); font-family: &amp;quot;JetBrains Mono&amp;quot;, monospace;&quot;&gt;&lt;pre style=&quot;font-size: 12pt; font-family: &amp;quot;JetBrains Mono&amp;quot;, monospace;&quot;&gt;&lt;pre style=&quot;font-family:&#39;JetBrains Mono&#39;,monospace;font-size:9.0pt;&quot;&gt;&lt;div&gt;&lt;pre style=&quot;font-family:&#39;JetBrains Mono&#39;,monospace;font-size:9.0pt;&quot;&gt;var formulaWithOneVariables = FormulaParser.FindAllPropositionalVariables(formulaWithOneStr);&lt;/pre&gt;&lt;/div&gt;&lt;/pre&gt;&lt;/pre&gt;&lt;/pre&gt;" style="shape=process;whiteSpace=wrap;html=1;backgroundOutline=1;size=0.03645007923930269;" vertex="1" parent="1">
          <mxGeometry x="747.5" y="345" width="750" height="45" as="geometry" />
        </mxCell>
        <mxCell id="hHyw9ZhmQFmIBixU8_tA-36" value="" style="edgeStyle=orthogonalEdgeStyle;rounded=0;orthogonalLoop=1;jettySize=auto;html=1;" edge="1" parent="1" source="hHyw9ZhmQFmIBixU8_tA-11" target="hHyw9ZhmQFmIBixU8_tA-12">
          <mxGeometry relative="1" as="geometry" />
        </mxCell>
        <mxCell id="hHyw9ZhmQFmIBixU8_tA-11" value="&lt;pre style=&quot;color: rgb(220, 220, 220); font-size: 12pt; background-color: rgb(30, 30, 30); font-family: &amp;quot;JetBrains Mono&amp;quot;, monospace;&quot;&gt;&lt;pre style=&quot;font-size: 12pt; font-family: &amp;quot;JetBrains Mono&amp;quot;, monospace;&quot;&gt;&lt;pre style=&quot;font-family:&#39;JetBrains Mono&#39;,monospace;font-size:9.0pt;&quot;&gt;&lt;pre style=&quot;font-family:&#39;JetBrains Mono&#39;,monospace;font-size:9.0pt;&quot;&gt;&lt;div&gt;&lt;pre style=&quot;font-family:&#39;JetBrains Mono&#39;,monospace;font-size:9.0pt;&quot;&gt;var formulaWithZeroVariables = FormulaParser.FindAllPropositionalVariables(formulaWithZeroStr);&lt;/pre&gt;&lt;/div&gt;&lt;/pre&gt;&lt;/pre&gt;&lt;/pre&gt;&lt;/pre&gt;" style="shape=process;whiteSpace=wrap;html=1;backgroundOutline=1;size=0.03645007923930269;" vertex="1" parent="1">
          <mxGeometry x="747.5" y="425" width="750" height="45" as="geometry" />
        </mxCell>
        <mxCell id="hHyw9ZhmQFmIBixU8_tA-37" style="edgeStyle=orthogonalEdgeStyle;rounded=0;orthogonalLoop=1;jettySize=auto;html=1;exitX=0.5;exitY=1;exitDx=0;exitDy=0;entryX=0.5;entryY=0;entryDx=0;entryDy=0;" edge="1" parent="1" source="hHyw9ZhmQFmIBixU8_tA-12" target="hHyw9ZhmQFmIBixU8_tA-13">
          <mxGeometry relative="1" as="geometry" />
        </mxCell>
        <mxCell id="hHyw9ZhmQFmIBixU8_tA-12" value="&lt;pre style=&quot;color: rgb(220, 220, 220); font-size: 12pt; background-color: rgb(30, 30, 30); font-family: &amp;quot;JetBrains Mono&amp;quot;, monospace;&quot;&gt;&lt;pre style=&quot;font-size: 12pt; font-family: &amp;quot;JetBrains Mono&amp;quot;, monospace;&quot;&gt;&lt;pre style=&quot;font-family:&#39;JetBrains Mono&#39;,monospace;font-size:9.0pt;&quot;&gt;&lt;pre style=&quot;font-family:&#39;JetBrains Mono&#39;,monospace;font-size:9.0pt;&quot;&gt;&lt;div&gt;&lt;pre style=&quot;font-family:&#39;JetBrains Mono&#39;,monospace;font-size:9.0pt;&quot;&gt;var resultOne = OptionsBuilder.FindIndexForm(formulaWithOneVariables, formulaWithOne);&lt;/pre&gt;&lt;/div&gt;&lt;/pre&gt;&lt;/pre&gt;&lt;/pre&gt;&lt;/pre&gt;" style="shape=process;whiteSpace=wrap;html=1;backgroundOutline=1;size=0.03645007923930269;" vertex="1" parent="1">
          <mxGeometry x="747.5" y="510" width="750" height="45" as="geometry" />
        </mxCell>
        <mxCell id="hHyw9ZhmQFmIBixU8_tA-38" style="edgeStyle=orthogonalEdgeStyle;rounded=0;orthogonalLoop=1;jettySize=auto;html=1;exitX=0.5;exitY=1;exitDx=0;exitDy=0;entryX=0.5;entryY=0;entryDx=0;entryDy=0;" edge="1" parent="1" source="hHyw9ZhmQFmIBixU8_tA-13" target="hHyw9ZhmQFmIBixU8_tA-14">
          <mxGeometry relative="1" as="geometry" />
        </mxCell>
        <mxCell id="hHyw9ZhmQFmIBixU8_tA-13" value="&lt;pre style=&quot;color: rgb(220, 220, 220); font-size: 12pt; background-color: rgb(30, 30, 30); font-family: &amp;quot;JetBrains Mono&amp;quot;, monospace;&quot;&gt;&lt;pre style=&quot;font-size: 12pt; font-family: &amp;quot;JetBrains Mono&amp;quot;, monospace;&quot;&gt;&lt;pre style=&quot;font-family:&#39;JetBrains Mono&#39;,monospace;font-size:9.0pt;&quot;&gt;&lt;pre style=&quot;font-family:&#39;JetBrains Mono&#39;,monospace;font-size:9.0pt;&quot;&gt;&lt;pre style=&quot;font-family:&#39;JetBrains Mono&#39;,monospace;font-size:9.0pt;&quot;&gt;&lt;div&gt;&lt;pre style=&quot;font-family:&#39;JetBrains Mono&#39;,monospace;font-size:9.0pt;&quot;&gt;var resultZero = OptionsBuilder.FindIndexForm(formulaWithZeroVariables, formulaWithZero);&lt;/pre&gt;&lt;/div&gt;&lt;/pre&gt;&lt;/pre&gt;&lt;/pre&gt;&lt;/pre&gt;&lt;/pre&gt;" style="shape=process;whiteSpace=wrap;html=1;backgroundOutline=1;size=0.03645007923930269;" vertex="1" parent="1">
          <mxGeometry x="747.5" y="590" width="750" height="45" as="geometry" />
        </mxCell>
        <mxCell id="hHyw9ZhmQFmIBixU8_tA-39" style="edgeStyle=orthogonalEdgeStyle;rounded=0;orthogonalLoop=1;jettySize=auto;html=1;exitX=0.5;exitY=1;exitDx=0;exitDy=0;entryX=0.5;entryY=0;entryDx=0;entryDy=0;" edge="1" parent="1" source="hHyw9ZhmQFmIBixU8_tA-14" target="hHyw9ZhmQFmIBixU8_tA-15">
          <mxGeometry relative="1" as="geometry" />
        </mxCell>
        <mxCell id="hHyw9ZhmQFmIBixU8_tA-14" value="&lt;div style=&quot;background-color: rgb(30, 30, 30); color: rgb(220, 220, 220);&quot;&gt;&lt;pre style=&quot;font-family:&#39;JetBrains Mono&#39;,monospace;font-size:12.0pt;&quot;&gt;&lt;pre style=&quot;font-family:&#39;JetBrains Mono&#39;,monospace;font-size:12.0pt;&quot;&gt;&lt;pre style=&quot;font-family:&#39;JetBrains Mono&#39;,monospace;font-size:12.0pt;&quot;&gt;&lt;pre style=&quot;font-family:&#39;JetBrains Mono&#39;,monospace;font-size:12.0pt;&quot;&gt;&lt;pre style=&quot;font-family:&#39;JetBrains Mono&#39;,monospace;font-size:12.0pt;&quot;&gt;&lt;pre style=&quot;font-family:&#39;JetBrains Mono&#39;,monospace;font-size:9.0pt;&quot;&gt;&lt;div&gt;&lt;pre style=&quot;font-family:&#39;JetBrains Mono&#39;,monospace;font-size:9.0pt;&quot;&gt;sw.Stop();&lt;/pre&gt;&lt;/div&gt;&lt;/pre&gt;&lt;/pre&gt;&lt;/pre&gt;&lt;/pre&gt;&lt;/pre&gt;&lt;/pre&gt;&lt;/div&gt;" style="rounded=1;whiteSpace=wrap;html=1;absoluteArcSize=1;arcSize=14;strokeWidth=2;" vertex="1" parent="1">
          <mxGeometry x="963" y="670" width="312.5" height="50" as="geometry" />
        </mxCell>
        <mxCell id="hHyw9ZhmQFmIBixU8_tA-40" style="edgeStyle=orthogonalEdgeStyle;rounded=0;orthogonalLoop=1;jettySize=auto;html=1;exitX=0.5;exitY=1;exitDx=0;exitDy=0;entryX=0.5;entryY=0;entryDx=0;entryDy=0;" edge="1" parent="1" source="hHyw9ZhmQFmIBixU8_tA-15" target="hHyw9ZhmQFmIBixU8_tA-16">
          <mxGeometry relative="1" as="geometry" />
        </mxCell>
        <mxCell id="hHyw9ZhmQFmIBixU8_tA-15" value="&lt;div style=&quot;background-color: rgb(30, 30, 30); color: rgb(220, 220, 220);&quot;&gt;&lt;pre style=&quot;font-family:&#39;JetBrains Mono&#39;,monospace;font-size:12.0pt;&quot;&gt;&lt;pre style=&quot;font-family:&#39;JetBrains Mono&#39;,monospace;font-size:12.0pt;&quot;&gt;&lt;pre style=&quot;font-family:&#39;JetBrains Mono&#39;,monospace;font-size:12.0pt;&quot;&gt;&lt;pre style=&quot;font-family:&#39;JetBrains Mono&#39;,monospace;font-size:12.0pt;&quot;&gt;&lt;pre style=&quot;font-family:&#39;JetBrains Mono&#39;,monospace;font-size:12.0pt;&quot;&gt;&lt;pre style=&quot;font-family:&#39;JetBrains Mono&#39;,monospace;font-size:9.0pt;&quot;&gt;&lt;pre style=&quot;font-family:&#39;JetBrains Mono&#39;,monospace;font-size:9.0pt;&quot;&gt;&lt;div&gt;&lt;pre style=&quot;font-family:&#39;JetBrains Mono&#39;,monospace;font-size:9.0pt;&quot;&gt;&lt;span style=&quot;color:#4dc9b0;&quot;&gt;Console&lt;/span&gt;.&lt;span style=&quot;color:#dcdca9;&quot;&gt;WriteLine&lt;/span&gt;(&lt;span style=&quot;color:#d69d85;&quot;&gt;$&quot;Переменная &lt;/span&gt;{&lt;span style=&quot;color:#9cdcfe;&quot;&gt;variableName&lt;/span&gt;.&lt;span style=&quot;color:#dcdca9;&quot;&gt;ToUpper&lt;/span&gt;()}&lt;span style=&quot;color:#d69d85;&quot;&gt; проверена за &lt;/span&gt;{&lt;span style=&quot;color:#9cdcfe;&quot;&gt;sw&lt;/span&gt;.ElapsedMilliseconds}&lt;span style=&quot;color:#d69d85;&quot;&gt; мс.&quot;&lt;/span&gt;);&lt;/pre&gt;&lt;/div&gt;&lt;/pre&gt;&lt;/pre&gt;&lt;/pre&gt;&lt;/pre&gt;&lt;/pre&gt;&lt;/pre&gt;&lt;/pre&gt;&lt;/div&gt;" style="rounded=1;whiteSpace=wrap;html=1;absoluteArcSize=1;arcSize=14;strokeWidth=2;" vertex="1" parent="1">
          <mxGeometry x="748.5" y="770" width="743.75" height="50" as="geometry" />
        </mxCell>
        <mxCell id="hHyw9ZhmQFmIBixU8_tA-32" style="edgeStyle=orthogonalEdgeStyle;rounded=0;orthogonalLoop=1;jettySize=auto;html=1;exitX=0.5;exitY=1;exitDx=0;exitDy=0;entryX=0.5;entryY=0;entryDx=0;entryDy=0;" edge="1" parent="1" source="hHyw9ZhmQFmIBixU8_tA-16" target="hHyw9ZhmQFmIBixU8_tA-17">
          <mxGeometry relative="1" as="geometry" />
        </mxCell>
        <mxCell id="hHyw9ZhmQFmIBixU8_tA-16" value="&lt;div style=&quot;background-color: rgb(30, 30, 30); color: rgb(220, 220, 220);&quot;&gt;&lt;pre style=&quot;font-family:&#39;JetBrains Mono&#39;,monospace;font-size:12.0pt;&quot;&gt;&lt;pre style=&quot;font-family:&#39;JetBrains Mono&#39;,monospace;font-size:12.0pt;&quot;&gt;&lt;pre style=&quot;font-family:&#39;JetBrains Mono&#39;,monospace;font-size:12.0pt;&quot;&gt;&lt;pre style=&quot;font-family:&#39;JetBrains Mono&#39;,monospace;font-size:12.0pt;&quot;&gt;&lt;pre style=&quot;font-family:&#39;JetBrains Mono&#39;,monospace;font-size:12.0pt;&quot;&gt;&lt;pre style=&quot;font-family:&#39;JetBrains Mono&#39;,monospace;font-size:9.0pt;&quot;&gt;&lt;pre style=&quot;font-family:&#39;JetBrains Mono&#39;,monospace;font-size:9.0pt;&quot;&gt;&lt;div&gt;&lt;pre style=&quot;font-family:&#39;JetBrains Mono&#39;,monospace;font-size:9.0pt;&quot;&gt;&lt;span style=&quot;color:#569cd6;&quot;&gt;int &lt;/span&gt;i = &lt;span style=&quot;color:#b5cea8;&quot;&gt;0&lt;/span&gt;;&lt;/pre&gt;&lt;/div&gt;&lt;/pre&gt;&lt;/pre&gt;&lt;/pre&gt;&lt;/pre&gt;&lt;/pre&gt;&lt;/pre&gt;&lt;/pre&gt;&lt;/div&gt;" style="rounded=1;whiteSpace=wrap;html=1;absoluteArcSize=1;arcSize=14;strokeWidth=2;" vertex="1" parent="1">
          <mxGeometry x="1060.75" y="860" width="117" height="50" as="geometry" />
        </mxCell>
        <mxCell id="hHyw9ZhmQFmIBixU8_tA-21" style="edgeStyle=orthogonalEdgeStyle;rounded=0;orthogonalLoop=1;jettySize=auto;html=1;exitX=1;exitY=0.5;exitDx=0;exitDy=0;" edge="1" parent="1" source="hHyw9ZhmQFmIBixU8_tA-17" target="hHyw9ZhmQFmIBixU8_tA-20">
          <mxGeometry relative="1" as="geometry" />
        </mxCell>
        <mxCell id="hHyw9ZhmQFmIBixU8_tA-22" value="yes" style="edgeLabel;html=1;align=center;verticalAlign=middle;resizable=0;points=[];" vertex="1" connectable="0" parent="hHyw9ZhmQFmIBixU8_tA-21">
          <mxGeometry x="-0.4178" y="2" relative="1" as="geometry">
            <mxPoint as="offset" />
          </mxGeometry>
        </mxCell>
        <mxCell id="hHyw9ZhmQFmIBixU8_tA-43" style="edgeStyle=orthogonalEdgeStyle;rounded=0;orthogonalLoop=1;jettySize=auto;html=1;exitX=0;exitY=0.5;exitDx=0;exitDy=0;" edge="1" parent="1" source="hHyw9ZhmQFmIBixU8_tA-17" target="hHyw9ZhmQFmIBixU8_tA-41">
          <mxGeometry relative="1" as="geometry" />
        </mxCell>
        <mxCell id="hHyw9ZhmQFmIBixU8_tA-45" value="no" style="edgeLabel;html=1;align=center;verticalAlign=middle;resizable=0;points=[];" vertex="1" connectable="0" parent="hHyw9ZhmQFmIBixU8_tA-43">
          <mxGeometry x="-0.8627" relative="1" as="geometry">
            <mxPoint as="offset" />
          </mxGeometry>
        </mxCell>
        <mxCell id="hHyw9ZhmQFmIBixU8_tA-17" value="&lt;div style=&quot;background-color:#1e1e1e;color:#dcdcdc&quot;&gt;&lt;pre style=&quot;font-family:&#39;JetBrains Mono&#39;,monospace;font-size:8.3pt;&quot;&gt;&lt;pre style=&quot;font-family:&#39;JetBrains Mono&#39;,monospace;font-size:11.3pt;&quot;&gt;&lt;div&gt;&lt;pre style=&quot;font-family:&#39;JetBrains Mono&#39;,monospace;font-size:9.0pt;&quot;&gt;i &amp;lt; resultOne.Length;&lt;/pre&gt;&lt;/div&gt;&lt;/pre&gt;&lt;/pre&gt;&lt;/div&gt;" style="rhombus;whiteSpace=wrap;html=1;" vertex="1" parent="1">
          <mxGeometry x="963" y="950" width="314.75" height="80" as="geometry" />
        </mxCell>
        <mxCell id="hHyw9ZhmQFmIBixU8_tA-31" style="edgeStyle=orthogonalEdgeStyle;rounded=0;orthogonalLoop=1;jettySize=auto;html=1;exitX=0.5;exitY=1;exitDx=0;exitDy=0;entryX=0.5;entryY=0;entryDx=0;entryDy=0;" edge="1" parent="1" source="hHyw9ZhmQFmIBixU8_tA-19" target="hHyw9ZhmQFmIBixU8_tA-17">
          <mxGeometry relative="1" as="geometry">
            <Array as="points">
              <mxPoint x="1119" y="1240" />
              <mxPoint x="920" y="1240" />
              <mxPoint x="920" y="930" />
              <mxPoint x="1120" y="930" />
            </Array>
          </mxGeometry>
        </mxCell>
        <mxCell id="hHyw9ZhmQFmIBixU8_tA-19" value="&lt;div style=&quot;background-color: rgb(30, 30, 30); color: rgb(220, 220, 220);&quot;&gt;&lt;pre style=&quot;font-family: &amp;quot;JetBrains Mono&amp;quot;, monospace; font-size: 12pt;&quot;&gt;&lt;pre style=&quot;font-family: &amp;quot;JetBrains Mono&amp;quot;, monospace; font-size: 12pt;&quot;&gt;&lt;pre style=&quot;font-family: &amp;quot;JetBrains Mono&amp;quot;, monospace; font-size: 12pt;&quot;&gt;&lt;pre style=&quot;font-family: &amp;quot;JetBrains Mono&amp;quot;, monospace; font-size: 12pt;&quot;&gt;&lt;pre style=&quot;font-family: &amp;quot;JetBrains Mono&amp;quot;, monospace; font-size: 12pt;&quot;&gt;&lt;pre style=&quot;font-family: &amp;quot;JetBrains Mono&amp;quot;, monospace; font-size: 9pt;&quot;&gt;&lt;pre style=&quot;font-family: &amp;quot;JetBrains Mono&amp;quot;, monospace; font-size: 9pt;&quot;&gt;&lt;pre style=&quot;font-family: &amp;quot;JetBrains Mono&amp;quot;, monospace; font-size: 9pt;&quot;&gt;&lt;font color=&quot;#569cd6&quot;&gt;i++;&lt;/font&gt;&lt;/pre&gt;&lt;/pre&gt;&lt;/pre&gt;&lt;/pre&gt;&lt;/pre&gt;&lt;/pre&gt;&lt;/pre&gt;&lt;/pre&gt;&lt;/div&gt;" style="rounded=1;whiteSpace=wrap;html=1;absoluteArcSize=1;arcSize=14;strokeWidth=2;" vertex="1" parent="1">
          <mxGeometry x="1060.75" y="1180" width="117" height="50" as="geometry" />
        </mxCell>
        <mxCell id="hHyw9ZhmQFmIBixU8_tA-24" style="edgeStyle=orthogonalEdgeStyle;rounded=0;orthogonalLoop=1;jettySize=auto;html=1;exitX=1;exitY=0.5;exitDx=0;exitDy=0;" edge="1" parent="1" source="hHyw9ZhmQFmIBixU8_tA-20" target="hHyw9ZhmQFmIBixU8_tA-23">
          <mxGeometry relative="1" as="geometry" />
        </mxCell>
        <mxCell id="hHyw9ZhmQFmIBixU8_tA-26" value="yes" style="edgeLabel;html=1;align=center;verticalAlign=middle;resizable=0;points=[];" vertex="1" connectable="0" parent="hHyw9ZhmQFmIBixU8_tA-24">
          <mxGeometry x="-0.658" y="-4" relative="1" as="geometry">
            <mxPoint x="-4" y="-4" as="offset" />
          </mxGeometry>
        </mxCell>
        <mxCell id="hHyw9ZhmQFmIBixU8_tA-27" style="edgeStyle=orthogonalEdgeStyle;rounded=0;orthogonalLoop=1;jettySize=auto;html=1;exitX=0;exitY=0.5;exitDx=0;exitDy=0;entryX=0.5;entryY=0;entryDx=0;entryDy=0;" edge="1" parent="1" source="hHyw9ZhmQFmIBixU8_tA-20" target="hHyw9ZhmQFmIBixU8_tA-19">
          <mxGeometry relative="1" as="geometry" />
        </mxCell>
        <mxCell id="hHyw9ZhmQFmIBixU8_tA-30" value="no" style="edgeLabel;html=1;align=center;verticalAlign=middle;resizable=0;points=[];" vertex="1" connectable="0" parent="hHyw9ZhmQFmIBixU8_tA-27">
          <mxGeometry x="-0.6421" y="-2" relative="1" as="geometry">
            <mxPoint as="offset" />
          </mxGeometry>
        </mxCell>
        <mxCell id="hHyw9ZhmQFmIBixU8_tA-20" value="&lt;div style=&quot;background-color:#1e1e1e;color:#dcdcdc&quot;&gt;&lt;pre style=&quot;font-family:&#39;JetBrains Mono&#39;,monospace;font-size:8.3pt;&quot;&gt;&lt;pre style=&quot;font-family:&#39;JetBrains Mono&#39;,monospace;font-size:11.3pt;&quot;&gt;&lt;pre style=&quot;font-family:&#39;JetBrains Mono&#39;,monospace;font-size:9.0pt;&quot;&gt;&lt;div&gt;&lt;pre style=&quot;font-family:&#39;JetBrains Mono&#39;,monospace;font-size:9.0pt;&quot;&gt;resultOne[i] != resultZero[i]&lt;/pre&gt;&lt;/div&gt;&lt;/pre&gt;&lt;/pre&gt;&lt;/pre&gt;&lt;/div&gt;" style="rhombus;whiteSpace=wrap;html=1;" vertex="1" parent="1">
          <mxGeometry x="1182.75" y="1050" width="314.75" height="80" as="geometry" />
        </mxCell>
        <mxCell id="hHyw9ZhmQFmIBixU8_tA-25" style="edgeStyle=orthogonalEdgeStyle;rounded=0;orthogonalLoop=1;jettySize=auto;html=1;exitX=0.5;exitY=1;exitDx=0;exitDy=0;" edge="1" parent="1" source="hHyw9ZhmQFmIBixU8_tA-23" target="GMXlGIsEn00OUuM3Z-hQ-67">
          <mxGeometry relative="1" as="geometry" />
        </mxCell>
        <mxCell id="hHyw9ZhmQFmIBixU8_tA-23" value="&lt;div style=&quot;background-color:#1e1e1e;color:#dcdcdc&quot;&gt;&lt;pre style=&quot;font-family:&#39;JetBrains Mono&#39;,monospace;font-size:9.0pt;&quot;&gt;&lt;span style=&quot;color:#d8a0df;&quot;&gt;return &lt;/span&gt;&lt;span style=&quot;color:#569cd6;&quot;&gt;false&lt;/span&gt;;&lt;/pre&gt;&lt;/div&gt;" style="rounded=1;whiteSpace=wrap;html=1;absoluteArcSize=1;arcSize=14;strokeWidth=2;" vertex="1" parent="1">
          <mxGeometry x="1467.5" y="1170" width="117" height="50" as="geometry" />
        </mxCell>
        <mxCell id="hHyw9ZhmQFmIBixU8_tA-44" style="edgeStyle=orthogonalEdgeStyle;rounded=0;orthogonalLoop=1;jettySize=auto;html=1;exitX=0.5;exitY=1;exitDx=0;exitDy=0;" edge="1" parent="1" source="hHyw9ZhmQFmIBixU8_tA-41" target="GMXlGIsEn00OUuM3Z-hQ-67">
          <mxGeometry relative="1" as="geometry">
            <Array as="points">
              <mxPoint x="769" y="1270" />
              <mxPoint x="1320" y="1270" />
            </Array>
          </mxGeometry>
        </mxCell>
        <mxCell id="hHyw9ZhmQFmIBixU8_tA-41" value="&lt;div style=&quot;background-color:#1e1e1e;color:#dcdcdc&quot;&gt;&lt;pre style=&quot;font-family:&#39;JetBrains Mono&#39;,monospace;font-size:9.0pt;&quot;&gt;&lt;span style=&quot;color:#d8a0df;&quot;&gt;return &lt;/span&gt;&lt;span style=&quot;color:#569cd6;&quot;&gt;true&lt;/span&gt;;&lt;/pre&gt;&lt;/div&gt;" style="rounded=1;whiteSpace=wrap;html=1;absoluteArcSize=1;arcSize=14;strokeWidth=2;" vertex="1" parent="1">
          <mxGeometry x="710" y="1120" width="117" height="50" as="geometry" />
        </mxCell>
      </root>
    </mxGraphModel>
  </diagram>
</mxfile>
